inDegrees=no
num_controls=7
num_derivatives=13
num_iterations=91
num_multipliers=7
num_parameters=0
num_slacks=7
num_states=26
objective=5.109574
objective_accelerations=0.108554
objective_balance=0.014790
objective_effort=0.078967
objective_height=4.786729
objective_ligament=0.120534
solver_duration=1004.096125
status=Solve_Succeeded
success=true
DataType=double
version=3
OpenSimVersion=4.4-2022-07-23-0e9fedc
endheader
time	/jointset/ground_pelvis/pelvis_tilt/value	/jointset/ground_pelvis/pelvis_tx/value	/jointset/ground_pelvis/pelvis_ty/value	/jointset/hip_l/hip_flexion_l/value	/jointset/hip_l/hip_adduction_l/value	/jointset/hip_l/hip_rotation_l/value	/jointset/back/lumbar_extension/value	/jointset/patellofemoral_l/patellar_flexion_l/value	/jointset/knee_l/knee_flexion_l/value	/jointset/knee_l/knee_adduction_l/value	/jointset/knee_l/knee_rotation_l/value	/jointset/ankle_l/ankle_angle_l/value	/jointset/subtalar_l/subtalar_angle_l/value	/jointset/ground_pelvis/pelvis_tilt/speed	/jointset/ground_pelvis/pelvis_tx/speed	/jointset/ground_pelvis/pelvis_ty/speed	/jointset/hip_l/hip_flexion_l/speed	/jointset/hip_l/hip_adduction_l/speed	/jointset/hip_l/hip_rotation_l/speed	/jointset/back/lumbar_extension/speed	/jointset/patellofemoral_l/patellar_flexion_l/speed	/jointset/knee_l/knee_flexion_l/speed	/jointset/knee_l/knee_adduction_l/speed	/jointset/knee_l/knee_rotation_l/speed	/jointset/ankle_l/ankle_angle_l/speed	/jointset/subtalar_l/subtalar_angle_l/speed	/forceset/tau_hip_flexion_l	/forceset/tau_hip_adduction_l	/forceset/tau_hip_rotation_l	/forceset/tau_knee_flexion_l	/forceset/tau_ankle_angle_l	/forceset/tau_subtalar_angle_l	/forceset/tau_lumbar_extension	lambda_cid13_p0	lambda_cid13_p1	lambda_cid13_p2	lambda_cid13_p3	lambda_cid13_p4	lambda_cid13_p5	lambda_cid14_p0	/jointset/ground_pelvis/pelvis_tilt/accel	/jointset/ground_pelvis/pelvis_tx/accel	/jointset/ground_pelvis/pelvis_ty/accel	/jointset/hip_l/hip_flexion_l/accel	/jointset/hip_l/hip_adduction_l/accel	/jointset/hip_l/hip_rotation_l/accel	/jointset/back/lumbar_extension/accel	/jointset/patellofemoral_l/patellar_flexion_l/accel	/jointset/knee_l/knee_flexion_l/accel	/jointset/knee_l/knee_adduction_l/accel	/jointset/knee_l/knee_rotation_l/accel	/jointset/ankle_l/ankle_angle_l/accel	/jointset/subtalar_l/subtalar_angle_l/accel	gamma_cid13_p0	gamma_cid13_p1	gamma_cid13_p2	gamma_cid13_p3	gamma_cid13_p4	gamma_cid13_p5	gamma_cid14_p0
1.5	0.02134538379878205	0.1838525016642948	0.8879013924623214	0.1677564222806547	-0.3377119138618062	-0.2285379084502521	-0.2420609632072014	0.3844771799961149	0.384477179996137	-0.04781237649264805	-0.1745209626640257	0.288230877878717	0.1907118795487254	-0.4359674032950029	-0.01831512110201271	0.07490965027846017	-0.04102589745045566	0.1054837598915307	-0.28325020691584	0.5756259028481024	-0.9765818112349142	-0.9765818112349191	-0.05881008899636343	0.0009440253140999687	-0.5523468927781016	-0.1071907458921419	0.02223234606467881	0.028145964006001	0.0007176375998902043	-0.1148958335691691	-0.08663168276495724	-0.007389744839535399	0.02710708196634332	-54.26967849788031	7.728074025819224	4.179301450966062	7.846637802352447	-456.3385885082865	-61.63650894497665	-24.52844786042014	-0.2803885918279564	-0.206360800038243	-0.1403234149518803	0.153857039187843	0.09498233241513294	-0.1507702201013464	0.2128722270399664	-0.7294531598895079	-0.7294531598895101	-0.2181981483453602	0.04842852832796007	-0.630743216601259	-0.06003283914947549	-2.113792158109898e-08	3.625151215390752e-08	5.990144665431611e-08	9.21463529310786e-09	-3.997580448998491e-08	-6.559014386405288e-08	-3.445366164633151e-09
1.51	0.01697215113270631	0.1836590382217303	0.8886432588312234	0.1673541897512131	-0.3366524084830229	-0.2313777686348406	-0.2362946834015953	0.374676421228667	0.3746764212287861	-0.04841112687742559	-0.1745092001156528	0.2826767232686017	0.1896372805205096	-0.4386213009944655	-0.02037713448461856	0.07344560646175788	-0.03941041303521072	0.1064062936179548	-0.2846805258960792	0.5775527318032002	-0.9834343336043653	-0.983434333604369	-0.06093170846553343	0.001420743277084821	-0.5584077823096256	-0.1077071853631403	0.0219395172929325	0.0271874093703436	0.0006416923883698283	-0.1123127106537835	-0.0855135685466327	-0.007717863749258815	0.02667281982254864	-53.87846453681374	7.702622391953425	4.296960405023714	7.695179543403761	-455.6797478872954	-61.75623030589058	-24.67706035829431	-0.2492180468796335	-0.2060550258553389	-0.1521539844577608	0.1669208428641074	0.08921712651063068	-0.1329730683450502	0.1709892589452254	-0.6428096665566593	-0.6428096665564383	-0.2078885976466866	0.04914187451237195	-0.5823262671135857	-0.04418095804794072	-2.060514826403106e-08	3.585113158607327e-08	6.126474516847311e-08	8.551073285454472e-09	-3.525050760530302e-08	-6.663047012092054e-08	-3.851943818339227e-09
1.52	0.01257411395204295	0.1834449679616423	0.8893699429380735	0.1669684174059456	-0.3355840121202119	-0.2342306940755031	-0.2305114551006023	0.3648112056593815	0.3648112056594789	-0.04903084240722388	-0.1744923006987602	0.2770642468740339	0.1885581708061909	-0.4409283062088653	-0.02243648460669491	0.07187319786808447	-0.03773386061310972	0.1072619566945519	-0.2858632581307364	0.5790156019263606	-0.9894731716171562	-0.9894731716171589	-0.06300311799245888	0.001971399009176581	-0.5640112496685697	-0.1080928831130608	0.0216466885211881	0.02622885473466198	0.0005657471764158765	-0.1097295877383659	-0.08439545432829888	-0.008045982659006121	0.02623855767874202	-53.49121029943463	7.678892218416411	4.413170929926908	7.555777536913224	-455.0733450071123	-61.88437959813035	-24.81872709857031	-0.2110100948156525	-0.2058281479320878	-0.1619963703461551	0.1660706405589728	0.08160820244955459	-0.1012528709854237	0.1200804606523477	-0.566716288557383	-0.566716288557384	-0.2081561598966797	0.06321608214874432	-0.5392587820849967	-0.03388449493394975	-2.002872646248887e-08	3.83896636490322e-08	6.000437835580194e-08	8.265428677385788e-09	-2.988801768072177e-08	-6.347503427110398e-08	-3.876347249555233e-09
1.53	0.008154805961148993	0.1832103365596272	0.8900803864526605	0.1665996245362073	-0.334507392201241	-0.2370942105655755	-0.22471595736464	0.3548896715621095	0.354889671562173	-0.04967099979180722	-0.1744695269699291	0.2713980519594593	0.1874758568664089	-0.4428731332126122	-0.02448768893597338	0.07019909823718661	-0.03601437441755516	0.1080508289176174	-0.2867979836884483	0.5800070293280756	-0.9946903345911055	-0.9946903345911078	-0.0650155841943322	0.002594540655055845	-0.5691455219744241	-0.1083470758798038	0.02135064575708706	0.02529494667440386	0.0004839806238458605	-0.107172145479639	-0.08315152921645783	-0.008410101696202783	0.02581378425112843	-53.06626422849455	7.672144439863525	4.517596071721185	7.375495529022865	-454.4572607714094	-61.98084336658097	-24.95354274635684	-0.1771975684837716	-0.2044488568992441	-0.1725819044861598	0.1764356466955971	0.07582868974237549	-0.08327877417856305	0.07713648891349455	-0.4777186565696098	-0.4777186565695203	-0.19586122793608	0.06355065770740498	-0.4881807184984608	-0.01777577998399574	-1.940592814619276e-08	4.405079038220886e-08	5.595636713337588e-08	8.381321306375844e-09	-2.384851015124746e-08	-5.58616011829355e-08	-3.494690569375546e-09
1.54	0.003717853987130293	0.1829552566580241	0.8907735959419354	0.1662483361359344	-0.3334232231685264	-0.2399658135864266	-0.2189128528328711	0.3449202653641386	0.3449202653642053	-0.05033089571390398	-0.1744401843342973	0.2656829804690931	0.1863916831764736	-0.444457102829515	-0.02652618452432006	0.06842639280564865	-0.03423296671631511	0.1087717794409612	-0.2874805642867654	0.5805369610891292	-0.9990475917552762	-0.9990475917552786	-0.06695082550034814	0.00328518037690414	-0.5737865648267796	-0.1084648331441285	0.02105460299296317	0.02436103861414361	0.000402214071592983	-0.1046147032208748	-0.08190760410459143	-0.008774220733395132	0.02538901082345168	-52.64459983052076	7.667055912731299	4.620518179121247	7.206273086304533	-453.8825714360208	-62.08387676900757	-25.08154248701316	-0.1388386174470886	-0.2032863997454483	-0.1817175304742213	0.1784549416959955	0.06802386250505717	-0.05082387910696077	0.02778133251990617	-0.394735126601653	-0.3947351266016528	-0.1927111807254347	0.076715697341976	-0.4406128913848643	-0.006597394450364626	-1.670852777319327e-08	5.733969702356216e-08	3.708607238807517e-08	8.89951257951538e-09	-1.241745020776387e-08	-2.777342526253134e-08	-1.316526418969528e-09
1.55	-0.0007329820163768525	0.1826798755061117	0.8914486255221636	0.1659149060775995	-0.3323322335756864	-0.2428428843360911	-0.2131069177382903	0.3349114716122462	0.3349114716122388	-0.05100990454145733	-0.1744035301883348	0.2599239314269358	0.1853069172196195	-0.4456463953467969	-0.02854660544779903	0.06656500396659558	-0.03244386137402313	0.109413421789248	-0.2878890420019504	0.5805692164712666	-1.002560456077157	-1.00256045607716	-0.06883661291010085	0.004056109385677407	-0.5779359443110775	-0.1084666993034453	0.02077409072603245	0.02328357563756608	0.0003170858674844062	-0.1021225265744395	-0.08056701350458592	-0.009056817049698013	0.02496002544391471	-52.18442124709424	7.619144505924994	4.731036849933369	6.995082606055321	-453.3182142999692	-62.29231112758183	-25.20168144910759	-0.09942122504502175	-0.2009017908825048	-0.1905244463417842	0.1805138786836935	0.0603175197780409	-0.02917296397088395	-0.02117856266466783	-0.30695776067769	-0.306957760677832	-0.1843500197629451	0.07884804066309745	-0.3890037175889418	0.006255668145698605	-1.162082503051391e-08	7.941713268955327e-08	1.13792923598506e-09	9.881221855696682e-09	5.225615777947464e-09	2.390521522544739e-08	2.931526773218888e-09
